# xmcd
#
# Track frame offsets:
#	150
#	13470
#	23844
#	35210
#	47317
#	61430
#	76027
#	89602
#	101015
#	114572
#	125925
#	138167
#	151245
#	161225
#	174215
#	184437
#	196182
#	207312
#	217417
#	231780
#	241590
#	250245
#	261397
#	273490
#
# Disc length: 3787
#
# Revision: 1
# Processed by: cddbd v1.5.1PL0 Copyright (c) Steve Scherf et al.
# Submitted via: CDex 1.60beta1
# Normalized: r0:DSETVAR1
#
DISCID=600ec918
DTITLE=Various Artist - WCBS FM 101 For Lovers Only
DYEAR=0
DGENRE=Blues
TTITLE0=The Penguins - Earth Angel
TTITLE1=Johnnie And Joe - Over The Mountain, Across The Sea
TTITLE2=Safaris - Image Of A Girl
TTITLE3=The Passions - This Is My Love
TTITLE4=The Harptones - A Sunday Kind Of Love
TTITLE5=The Teen Queens - Eddie My Love
TTITLE6=The Five Satins - In The Still Of The Night
TTITLE7=The Mello-Kings - Tonight Tonight
TTITLE8=The Channels - The Closer You Are
TTITLE9=The Students - I'm So Young
TTITLE10=The Charts - Deserie
TTITLE11=The Dells - Oh What A Night
TTITLE12=The Capris - There's A Moon Out Tonight
TTITLE13=The Crests - Crests - Sixteen Candles
TTITLE14=The Classics - Till Then
TTITLE15=The Duprees - You Belong To Me
TTITLE16=The Chimes - Once In A While
TTITLE17=Danleers - One Summer Night
TTITLE18=The Moonglows - Sincerely
TTITLE19=Charades - Please Be My Love Tonight
TTITLE20=Fire Flies - You Were Mine
TTITLE21=The Angels - Till
TTITLE22=Jerry Butler and Betty Everett - Let It Be Me
TTITLE23=Lee Andrews and The Hearts - Lee Andrews And The Hearts
EXTD=YEAR: 0
EXTT0=
EXTT1=
EXTT2=
EXTT3=
EXTT4=
EXTT5=
EXTT6=
EXTT7=
EXTT8=
EXTT9=
EXTT10=
EXTT11=
EXTT12=
EXTT13=
EXTT14=
EXTT15=
EXTT16=
EXTT17=
EXTT18=
EXTT19=
EXTT20=
EXTT21=
EXTT22=
EXTT23=
PLAYORDER=
